<svg width="30" height="20" viewBox="0 0 30 20" fill="none" xmlns="http://www.w3.org/2000/svg">
<path fill-rule="evenodd" clip-rule="evenodd" d="M28.3891 6.22118C28.3936 6.30207 28.3877 6.38422 28.3675 6.46679L26.5607 13.7233C26.4695 14.0885 26.1432 14.346 25.7681 14.3481L14.9274 14.403C14.9261 14.403 14.9247 14.403 14.9232 14.403H4.08254C3.70536 14.403 3.37675 14.1447 3.28571 13.7774L1.4789 6.49317C1.45804 6.40889 1.45208 6.32419 1.45734 6.2412C0.75836 6.02031 0.250015 5.36356 0.250015 4.58976C0.250015 3.63425 1.02363 2.85746 1.97465 2.85746C2.92566 2.85746 3.69928 3.63425 3.69928 4.58976C3.69928 5.12733 3.45386 5.6083 3.06962 5.92666L5.33169 8.21483C5.90346 8.79325 6.69675 9.12524 7.50833 9.12524C8.46805 9.12524 9.38303 8.66728 9.95924 7.90071L13.6769 2.9545C13.3646 2.64125 13.1712 2.20837 13.1712 1.73084C13.1712 0.775721 13.9448 -0.00146484 14.8958 -0.00146484C15.8468 -0.00146484 16.6204 0.775721 16.6204 1.73084C16.6204 2.19392 16.4373 2.614 16.1414 2.92513C16.1423 2.92642 16.1436 2.9277 16.1445 2.92897L19.8352 7.8888C20.4112 8.6626 21.3294 9.12524 22.2919 9.12524C23.1109 9.12524 23.8812 8.80475 24.4603 8.22334L26.7366 5.9373C26.3443 5.61936 26.0923 5.13415 26.0923 4.58976C26.0923 3.63425 26.866 2.85746 27.817 2.85746C28.768 2.85746 29.5417 3.63425 29.5417 4.58976C29.5417 5.3427 29.0592 5.98369 28.3891 6.22118ZM26.3844 16.9866C26.3844 16.5316 26.0166 16.1621 25.5631 16.1621H4.31982C3.86625 16.1621 3.49851 16.5316 3.49851 16.9866V18.9657C3.49851 19.4216 3.86625 19.7906 4.31982 19.7906H25.5631C26.0166 19.7906 26.3844 19.4216 26.3844 18.9657V16.9866Z" fill="#FE5868"/>
</svg>
