<svg width="25" height="21" viewBox="0 0 25 21" fill="none" xmlns="http://www.w3.org/2000/svg">
<path fill-rule="evenodd" clip-rule="evenodd" d="M15.2171 14.9625C15.3849 14.7923 15.4689 14.5914 15.4689 14.359V12.2147H24.3749V18.648C24.3749 19.2371 24.1674 19.7423 23.752 20.162C23.3368 20.5821 22.8375 20.7919 22.2545 20.7919H2.74556C2.16237 20.7919 1.6631 20.5821 1.24787 20.162C0.832479 19.7423 0.624916 19.2371 0.624916 18.648V12.2147H9.53116V14.359C9.53116 14.5914 9.61516 14.7923 9.78304 14.9625C9.95091 15.1319 10.1497 15.2171 10.3795 15.2171H14.6206C14.8502 15.2171 15.0492 15.1319 15.2171 14.9625ZM14.1966 12.2147H10.8035V13.93H14.1966V12.2147ZM23.7521 4.2674C23.3369 3.84686 22.8376 3.63703 22.2546 3.63703H17.5891V1.49273C17.5891 1.1352 17.4656 0.831725 17.2181 0.581043C16.9709 0.331621 16.6703 0.206055 16.317 0.206055H8.68308C8.32967 0.206055 8.02933 0.331621 7.7819 0.581043C7.53447 0.831297 7.4108 1.1352 7.4108 1.49273V3.63703H2.74558C2.16239 3.63703 1.66311 3.84686 1.24788 4.2674C0.832496 4.68663 0.624933 5.19142 0.624933 5.78134V10.928H24.3749V5.78134C24.3749 5.19142 24.1674 4.68663 23.7521 4.2674ZM15.8929 3.63703H9.10717V1.92133H15.8929V3.63703Z" fill="#FF4550"/>
</svg>
